HIERARCHY
ROOT Hips
{
	OFFSET 0.000000 0.000000 0.000000
	CHANNELS 6 Xposition Yposition Zposition Zrotation Yrotation Xrotation 
	JOINT LHipJoint
	{
		OFFSET 0.000000 0.000000 0.000000
		CHANNELS 3 Zrotation Yrotation Xrotation
		JOINT LeftUpLeg
		{
			OFFSET 1.363060 -1.794630 0.839290
			CHANNELS 3 Zrotation Yrotation Xrotation
			JOINT LeftLeg
			{
				OFFSET 2.448110 -6.726130 0.000000
				CHANNELS 3 Zrotation Yrotation Xrotation
				JOINT LeftFoot
				{
					OFFSET 2.562200 -7.039590 0.000000
					CHANNELS 3 Zrotation Yrotation Xrotation
					JOINT LeftToeBase
					{
						OFFSET 0.157640 -0.433110 2.322550
						CHANNELS 3 Zrotation Yrotation Xrotation
						End Site
						{
							OFFSET 0.000000 0.000000 0.000000
						}
					}
				}
			}
		}
	}
	JOINT RHipJoint
	{
		OFFSET 0.000000 0.000000 0.000000
		CHANNELS 3 Zrotation Yrotation Xrotation
		JOINT RightUpLeg
		{
			OFFSET -1.305520 -1.794630 0.839290
			CHANNELS 3 Zrotation Yrotation Xrotation
			JOINT RightLeg
			{
				OFFSET -2.542530 -6.985550 0.000000
				CHANNELS 3 Zrotation Yrotation Xrotation
				JOINT RightFoot
				{
					OFFSET -2.568260 -7.056230 0.000000
					CHANNELS 3 Zrotation Yrotation Xrotation
					JOINT RightToeBase
					{
						OFFSET -0.164730 -0.452590 2.363150
						CHANNELS 3 Zrotation Yrotation Xrotation
						End Site
						{
							OFFSET 0.000000 0.000000 0.000000
						}
					}
				}
			}
		}
	}
}
MOTION
Frames: 11
Frame Time: 0.008333
4.624319 17.339555 1.035397 8.940715 -53.468258 7.279380 -9.883856 0.225154 3.909676 -8.094825 -12.603237 -18.127629 -2.613534 -1.173153 -2.661094 -0.303942 0.820091 10.019413 0.838700 0.000000 -41.253700 10.581620 -0.790500 -3.479365 0.635916 -22.109715 -6.389467 1.016082 0.968721 -4.710843 -3.425009 -23.351896 3.948939 -7.055000 0.000000 -58.701000
4.631934 17.341579 1.043035 8.938310 -53.620825 7.450482 -9.897954 0.217011 3.885543 -8.123950 -12.425789 -18.365849 -2.619948 -1.175879 -2.634278 -0.311972 0.726985 10.029109 0.811400 -0.000000 -41.258200 10.563084 -0.771288 -3.438806 0.706165 -21.956681 -6.682825 1.022960 0.970750 -4.613342 -3.373133 -23.348982 3.913646 -7.107100 -0.000000 -58.643200
4.640101 17.343245 1.050590 8.930572 -53.807521 7.618155 -9.910155 0.210579 3.857024 -8.152759 -12.237316 -18.593841 -2.624987 -1.178534 -2.605533 -0.318238 0.653430 10.024897 0.790000 0.000000 -41.267500 10.546131 -0.751634 -3.396250 0.773547 -21.780899 -6.968868 1.028946 0.973291 -4.518113 -3.321512 -23.337450 3.876836 -7.154500 -0.000000 -58.587301
4.649121 17.344512 1.057898 8.915600 -54.025526 7.780603 -9.920496 0.204782 3.824309 -8.178561 -12.045565 -18.806925 -2.628086 -1.181270 -2.578163 -0.322151 0.607133 10.008215 0.776900 -0.000000 -41.280100 10.530614 -0.731682 -3.353959 0.837001 -21.588569 -7.245015 1.034641 0.975895 -4.426580 -3.270283 -23.312645 3.840684 -7.195200 -0.000000 -58.540400
4.658963 17.345347 1.064787 8.895375 -54.270383 7.937299 -9.929065 0.198763 3.787946 -8.199250 -11.857359 -19.002502 -2.629013 -1.184389 -2.555366 -0.323544 0.593110 9.981130 0.773799 0.000000 -41.294800 10.516440 -0.711772 -3.313658 0.896407 -21.385984 -7.510173 1.040634 0.978253 -4.339948 -3.219212 -23.270762 3.806049 -7.227499 -0.000000 -58.504400
4.669725 17.345774 1.071122 8.869722 -54.537331 8.088030 -9.936359 0.191549 3.748244 -8.212973 -11.677967 -19.178458 -2.627510 -1.187995 -2.539805 -0.322370 0.613815 9.946603 0.781600 0.000000 -41.309500 10.503099 -0.692101 -3.277248 0.952052 -21.179959 -7.764265 1.047604 0.979951 -4.258176 -3.168063 -23.208717 3.774302 -7.250301 0.000000 -58.483800
4.681437 17.345831 1.076860 8.838883 -54.820910 8.233476 -9.942970 0.182424 3.705488 -8.218673 -11.510086 -19.334726 -2.623557 -1.192163 -2.533843 -0.318708 0.668287 9.908143 0.800000 0.000000 -41.322400 10.490045 -0.672760 -3.246142 1.004682 -20.976435 -8.008541 1.056110 0.980667 -4.180586 -3.116155 -23.125031 3.746787 -7.263800 0.000000 -58.480600
4.693948 17.345649 1.081959 8.804544 -55.116425 8.374729 -9.949506 0.171051 3.660033 -8.216063 -11.354637 -19.472675 -2.617336 -1.196913 -2.538709 -0.312680 0.752694 9.868705 0.827700 -0.000000 -41.331901 10.476729 -0.653736 -3.221329 1.055482 -20.780669 -8.245238 1.066669 0.980251 -4.105776 -3.062881 -23.018827 3.723775 -7.268500 -0.000000 -58.495200
4.707169 17.345282 1.086475 8.767136 -55.419556 8.513075 -9.956638 0.157329 3.612037 -8.205864 -11.209889 -19.594850 -2.609175 -1.202135 -2.555090 -0.304642 0.860676 9.831411 0.862500 0.000000 -41.336300 10.462557 -0.634870 -3.203429 1.105790 -20.596726 -8.476988 1.079612 0.978589 -4.031795 -3.007312 -22.891161 3.705963 -7.265800 0.000000 -58.528200
4.721047 17.344878 1.090481 8.726262 -55.727480 8.650150 -9.965038 0.141238 3.561334 -8.189320 -11.072473 -19.705134 -2.599406 -1.207548 -2.581588 -0.295098 0.984828 9.798030 0.902100 0.000001 -41.335601 10.446897 -0.615708 -3.192560 1.156676 -20.426469 -8.706898 1.095159 0.975807 -3.957468 -2.949160 -22.743217 3.692621 -7.256600 0.000000 -58.573900
4.735199 17.344494 1.094042 8.684382 -56.035978 8.788096 -9.974849 0.123458 3.508611 -8.167776 -10.938815 -19.807623 -2.588739 -1.213114 -2.617956 -0.284528 1.115806 9.770977 0.943500 -0.000000 -41.329300 10.429784 -0.596253 -3.188195 1.209747 -20.272090 -8.937941 1.113330 0.971954 -3.879741 -2.887337 -22.578078 3.683159 -7.243100 0.000001 -58.634200
